<svg xmlns="http://www.w3.org/2000/svg" xmlns:xlink="http://www.w3.org/1999/xlink">
  <defs>
    <symbol id="corner" width="10" height="10">
      <path d="M2.23 10c.1-.71.28-1.42.47-2.12.35-1.23.53-2.45.47-3.67.41-.44.86-.84 1.32-1.22 1.82.08 3.7.22 5.51.45V10H2.23z" fill="#000" fill-rule="evenodd "/>
    </symbol>

    <pattern id="edge-h" x="0" y="0" width="480" height="10" patternUnits="userSpaceOnUse" preserveAspectRatio="none">
        <path d="M0 3.44c.38.04.76.1 1.13.15.46.07.98.2 1.38.05 4.28-1.5 8.65-.18 12.96-.48 3.6-.25 7.17.46 10.75.25 1.61-.1 3.2-.4 4.81-.54 2.57-.23 5.08.37 7.61.64 1.17.13 2.3.23 3.4-.32.5-.25 1.04-.44 1.57-.32 2.38.55 4.78.22 7.16.26 1.39.03 2.78.27 4.12-.3.2-.09.48-.13.69-.08 3.03.85 6.11.1 9.17.22 3.08.13 6.14.3 9.2.68.39.05.8.08 1.12-.18 1.53-1.28 3.2-.84 4.85-.39 1.3.36 2.54.54 3.82.03a6.2 6.2 0 013.21-.16c3.13.44 6.25.93 9.4 0 .77-.22 1.7-.04 2.52.11 2.82.52 5.7.11 8.52.55.07.01.16.01.23-.02 4.03-1.57 8.08-.19 12.12-.08.63.02 1.22.01 1.8-.25a6.1 6.1 0 014.76-.18c2.32.9 4.57.35 6.82.02 1.01-.15 1.97-.23 2.97-.08 1.61.22 3.23.4 4.84-.02.37-.09.8-.15 1.15-.06 3.06.81 6.1-.06 9.15-.03 2 .03 4 .22 6 .34 1.78.11 3.53.18 5.3-.26 1.76-.44 3.56.12 5.3.39 2.54.38 5.08.35 7.63.33 4.07-.04 8.13-.32 12.17-.9a4.3 4.3 0 012.06.1c2.81 1.07 5.7.55 8.45.14a30.5 30.5 0 017.38-.06c3.08.28 6.2.56 9.25.46 2.74-.09 5.45-.13 8.18-.1 2.83.02 5.7.08 8.56-.15 2.28-.2 4.62.07 6.81.93h.93c.92-.72 2.1-.57 3.1-.66 2.57-.23 5.11-1.03 7.77-.28a8.7 8.7 0 005.48-.27c.28-.1.61-.22.9-.19 3.37.45 6.8-.34 10.14.62.85.25 1.63.35 2.45-.09.7-.37 1.48-.25 2.26-.22 2.84.1 5.68.7 8.52-.21.9-.29 2.02-.08 2.99.12 2.46.49 4.88.22 7.35.05a91 91 0 017.24-.24c1.9.03 3.83.38 5.74.6 1.94.24 3.82-.18 5.74-.16 2.98.04 5.98.25 9-.22 2.32-.37 4.77.08 7.15.25 1.86.13 3.72.1 5.57 0a10.9 10.9 0 013.45.23c.92.25 1.85.26 2.77.13a48.2 48.2 0 0112.64-.17c.94.11 1.8.18 2.65-.44.4-.29 1.05-.47 1.54-.38 1.84.32 3.75-.06 5.53.41 2.7.72 5.31.26 7.98-.03 2.3-.25 4.62-.26 6.93.05 3 .4 6.06 1 9 .5 3.75-.63 7.54.3 11.25-.65.5-.12 1.11-.08 1.6.09 3.41 1.16 6.86.28 10.28.19 1.4-.04 2.79-.02 4.17.14 2.17.24 4.3.36 6.43-.35.42-.14.93-.12 1.37-.04 2.99.53 6.01.28 9.02.43.23 0 .47.08.69.03 4.54-1.08 9.04 0 13.55.22.72.03 1.37-.02 2.04-.29 1.7-.68 3.5-.85 5.24-.41 2.67.66 5.44.38 8.03.19a57.6 57.6 0 019.65.25c.69.06 1.37.13 2.07 0 2.28-.4 4.55-.85 6.86-.13.27.08.65.06.91-.06a5.8 5.8 0 013.7-.19V10H0V3.44z" fill="#000" fill-rule="evenodd "/>
    </pattern>

    <pattern id="edge-v" width="10" height="480" patternUnits="userSpaceOnUse" preserveAspectRatio="none">
      <path d="M2.76 480l.25-1.96c.07-.46.2-.98.06-1.38-1.51-4.28-.18-8.65-.49-12.96-.25-3.6.46-7.17.25-10.75-.1-1.61-.39-3.2-.54-4.82-.23-2.56.38-5.07.65-7.6.12-1.17.23-2.3-.33-3.4-.24-.5-.44-1.04-.31-1.57.55-2.38.21-4.78.26-7.16.02-1.39.27-2.78-.3-4.12-.1-.2-.14-.48-.08-.69.84-3.03.09-6.11.22-9.17.12-3.08.3-6.14.67-9.2.05-.39.08-.8-.18-1.12-1.27-1.53-.83-3.2-.38-4.85.35-1.3.54-2.54.02-3.82a6.2 6.2 0 01-.15-3.21c.43-3.14.93-6.25 0-9.4-.22-.77-.05-1.7.1-2.52.52-2.82.12-5.7.55-8.52a.49.49 0 00-.01-.23c-1.58-4.03-.2-8.08-.08-12.12.02-.63 0-1.22-.25-1.8a6.1 6.1 0 01-.18-4.76c.89-2.32.34-4.57.02-6.82a10.21 10.21 0 01-.09-2.97c.23-1.61.4-3.23-.01-4.84-.1-.37-.16-.8-.06-1.15.8-3.06-.07-6.1-.03-9.15.02-2 .2-4 .34-6 .1-1.78.17-3.53-.27-5.3-.43-1.76.13-3.56.39-5.3.39-2.54.35-5.08.33-7.63a89.34 89.34 0 00-.9-12.17c-.1-.67-.13-1.45.1-2.06 1.08-2.81.56-5.7.15-8.45-.38-2.5-.29-4.95-.06-7.38.28-3.08.55-6.2.46-9.25-.1-2.74-.13-5.45-.11-8.18.02-2.83.09-5.7-.15-8.56-.19-2.28.07-4.62.93-6.81v-.93c-.71-.92-.57-2.1-.66-3.1-.23-2.57-1.02-5.11-.28-7.77a8.7 8.7 0 00-.26-5.48 1.95 1.95 0 01-.19-.9c.44-3.37-.35-6.81.62-10.14.24-.85.34-1.63-.1-2.45-.36-.7-.24-1.48-.22-2.27.1-2.83.7-5.67-.2-8.51-.3-.9-.08-2.02.11-2.99.5-2.46.22-4.88.06-7.35a91 91 0 01-.24-7.24c.02-1.9.37-3.83.6-5.74.24-1.94-.18-3.82-.16-5.74.03-2.98.25-5.98-.23-9-.36-2.32.09-4.77.25-7.15.13-1.86.1-3.71 0-5.57-.07-1.17-.06-2.32.24-3.45.24-.92.26-1.85.12-2.77-.62-4.2-.65-8.42-.16-12.64.1-.94.17-1.8-.44-2.65-.3-.4-.47-1.05-.39-1.54.32-1.84-.05-3.75.42-5.53.71-2.7.25-5.31-.04-7.98-.24-2.3-.26-4.62.05-6.93.4-3 1-6.06.51-9-.63-3.75.3-7.54-.65-11.25-.13-.5-.08-1.11.08-1.6 1.16-3.41.29-6.86.2-10.28-.05-1.4-.02-2.79.13-4.17.25-2.17.36-4.3-.34-6.43a2.92 2.92 0 01-.05-1.37c.54-2.99.29-6.01.43-9.02.01-.23.09-.47.04-.69-1.08-4.54-.01-9.04.21-13.55a4.66 4.66 0 00-.28-2.04 8.47 8.47 0 01-.42-5.24c.66-2.68.39-5.44.2-8.03a57.6 57.6 0 01.25-9.65c.06-.69.13-1.37 0-2.07-.4-2.28-.86-4.55-.14-6.86.09-.27.07-.65-.05-.91A5.24 5.24 0 012.23 0H10v480H2.76z" fill="#000" fill-rule="evenodd "/>
    </pattern>

    <style type="text/css">
      .corner-ne {
        transform: translate(-10px, 0) rotate(90deg);
        transform-origin: calc(100% + 5px) 5px;
      }

      .corner-se {
        transform: translate(-10px, -10px) rotate(180deg);
        transform-origin: calc(100% + 5px) calc(100% + 5px);
      }

      .corner-sw {
        transform: translate(0, -10px) rotate(270deg);
        transform-origin: 5px calc(100% + 5px);
      }

      .edge-n {
        fill: url("#edge-h");
        width: calc(100% - 20px);
      }

      .edge-s {
        fill: url("#edge-h");
        width: calc(100% - 20px);
        transform: rotate(180deg) translateY(calc(100% - 10px));
        transform-origin: 50% calc(100% - 5px);
      }

      .edge-w {
        fill: url("#edge-v");
        height: calc(100% - 20px);
      }

      .edge-e {
        fill: url("#edge-v");
        height: calc(100% - 20px);
        transform: rotate(180deg) translateX(calc(-100% + 10px));
        transform-origin: 5px 50%;
      }

      .center {
        height: calc(100% - 10px);
        width: calc(100% - 10px);
      }
    </style>
  </defs>

  <rect x="5" y="5" width="100%" height="100%" fill="#000" class="center" />

  <use x="0" y="0" xlink:href="#corner" class="corner-nw" />
  <use x="100%" y="0" xlink:href="#corner" class="corner-ne" />
  <use x="100%" y="100%" xlink:href="#corner" class="corner-se" />
  <use x="0" y="100%" xlink:href="#corner" class="corner-sw" />

  <rect x="10" y="0" width="100%" height="10" class="edge-n "/>
  <rect x="10" y="0" width="100%" height="10" class="edge-s "/>
  <rect x="0" y="10" width="10" height="100%" class="edge-w "/>
  <rect x="0" y="10" width="10" height="100%" class="edge-e "/>
</svg>

