<svg xmlns="http://www.w3.org/2000/svg" viewBox="0 0 64.28 44"><g><path d="M1.56 8.75l.16-3.66 7.82 4.37a17 17 0 011.67-4.05l4 5A37.58 37.58 0 0127.65.9a27 27 0 012.45 5.94L35.35 2a18.31 18.31 0 013.38 7.19 43.62 43.62 0 015.66-5.38 24.6 24.6 0 011.78 4.93 36.17 36.17 0 018.8-5 7 7 0 01.41 3.88l5.89-3.17c.51-.28 1.17-.54 1.63-.2s.41 1 .34 1.51l-.89 7M2 32.48A19.85 19.85 0 00.34 38a56.39 56.39 0 0010.74-5.29 32.09 32.09 0 003.82 7.69L21 34a61.89 61.89 0 016 7.91 17.29 17.29 0 013.81-5.2l5.8 6.63 4.17-7.56 7 4.93a18.57 18.57 0 002-4.45 69.06 69.06 0 015.56 4.84l.24-5.3a15.21 15.21 0 006.79 3.92 6.64 6.64 0 00-1-3.68" fill="none" stroke="#ADAA62" stroke-linejoin="bevel" stroke-width="2"/></g></svg>