<svg xmlns="http://www.w3.org/2000/svg" viewBox="0 0 75 34.89"><g><path d="M17.23 2.59l-6.45-1.53a1.12 1.12 0 00-.7 0 1 1 0 00-.4.49C8.07 4.84 9.19 9 7.62 12.25a3.24 3.24 0 01-1.21 1.47c-1.59.91-4.1-.38-5.2 1.08a.86.86 0 00-.18.75 1.08 1.08 0 00.58.57 10.1 10.1 0 003 1.09 1 1 0 01.5.19c.3.27.16.76 0 1.13A20.91 20.91 0 003.52 27a2.59 2.59 0 00.33 1.43 2.66 2.66 0 001.37.83 33.45 33.45 0 007.45 1.66M59.31 5.63l7.43-.82a1.63 1.63 0 01.88.07c.55.27.58 1 .54 1.64l-.42 5.87a1.2 1.2 0 00.17.88 1.19 1.19 0 00.87.3l4 .26c.55 0 1.3.3 1.19.85a.93.93 0 01-.44.54 35.32 35.32 0 01-5.26 3.2 3.21 3.21 0 00-1.27.9 3.21 3.21 0 00-.41 1.44A55.62 55.62 0 0164 32.1a2.45 2.45 0 01-.68 1.18 2.4 2.4 0 01-1.23.4 29.17 29.17 0 01-7.64-.08" fill="none" stroke="#ADAA62" stroke-linejoin="bevel" stroke-width="2"/></g></svg>